<?xml version="1.0" encoding="utf-8"?>
<!-- Generator: Adobe Illustrator 25.1.0, SVG Export Plug-In . SVG Version: 6.00 Build 0)  -->
<svg version="1.2" baseProfile="tiny" id="STUFF" xmlns="http://www.w3.org/2000/svg" xmlns:xlink="http://www.w3.org/1999/xlink"
	 x="0px" y="0px" viewBox="0 0 525 525" overflow="visible" xml:space="preserve">
<g id="Layer_2_1_">
	<g id="ëÎÓÈ_1">
		<rect x="34.5" y="125.9" fill="#F6C75D" width="454.1" height="377.1"/>
		<polygon fill="#EDB44D" points="488.6,126 34.5,126 84.9,79.3 438.1,79.3 		"/>
		<polygon fill="#E6A83A" points="438.5,79.6 438.5,126 488.6,126 		"/>
		<polygon fill="#E6A83A" points="85.3,79.3 84.9,79.3 34.5,126 85.3,126 		"/>
		<rect x="34.9" y="125.6" fill="#EDB44D" width="454" height="15.3"/>
		<polygon fill="#F6D07B" points="423.9,22 97.3,22 85,79.5 438.9,79.5 		"/>
		<polygon fill="#F6C75D" points="32.9,126 120.3,102.7 168.3,57.9 83.2,79.9 		"/>
		<polygon fill="#F6C75D" points="488.8,126 401.3,102.7 353.4,57.9 438.5,79.9 		"/>
		<polygon fill="#F6D07B" points="524.8,98.5 0.2,98.5 34.6,125.6 488.9,125.6 		"/>
		<path fill="#728D3A" d="M295.4,348.1l-5.5-6.8c-0.7-1-0.8-2.4-0.1-3.5l0,0l2.5-5.9c0,0,5.3-12.3,2.8-12.3h-22.9l-0.2,2.5v1.7
			c0.1,1.5,1.4,2.7,2.9,2.6L285,327c1.2,0.1,2.1,1.1,2.1,2.3c0,0.2-0.1,0.5-0.2,0.7c-2.9,10.9-12.5,17.8-24.3,17.8
			c-14.1,0-25.5-11.3-25.6-25.4c0-13.1,9.9-24.1,22.9-25.4c4.3-0.4,8.7,0.3,12.7,2l2.2-5.1l-3.3-1.4l0,0c-2-0.7-2.4-1.9-2.4-2.5
			l-0.9-8.6c0-1.4-1.1-2.5-2.5-2.5h-0.1h-5.9c-1.4-0.1-2.6,1-2.7,2.4v0.1l-0.9,8.6c-0.2,1.1-1.1,2-2.2,2.4c-2.2,0.6-4.3,1.5-6.3,2.5
			c-1.9,0.9-3,0.3-3.4-0.1l-6.8-5.6c-1-1-2.7-1-3.7,0l0,0l-1.6,1.6l-1,1l-1.6,1.6c-1,1-1.1,2.6-0.1,3.6l0.1,0.1l5.6,6.8
			c0.6,0.8,0.8,1.9,0.3,2.8c-1.2,2.2-2.2,4.4-2.9,6.8c-0.7,1.7-1.8,2-2.4,2l-8.9,0.9c-1.5,0-2.8,1.2-2.9,2.7v5.9
			c0.1,1.5,1.3,2.7,2.9,2.6l8.9,0.9c1,0.1,1.9,0.8,2.2,1.7c0.7,2.4,1.7,4.8,2.9,7c0.6,1,0.5,2.2-0.2,3.1l-5.6,6.8
			c-1,1-1.1,2.6-0.1,3.6c0,0,0,0,0.1,0.1l2.7,2.6l1.6,1.6c1,1,2.7,1,3.7,0l0,0l6.8-5.6c0.9-0.6,2.1-0.7,3.1-0.2
			c2.1,1.1,4.2,2,6.5,2.7l0,0c2.3,0.6,2.3,1.9,2.4,2.5l0.9,8.9c0,1.5,1.1,2.7,2.6,2.8h5.8c1.5-0.1,2.7-1.3,2.7-2.8l1.1-8.6
			c0.1-0.6,0.4-1.8,2.7-2.5l0,0c1.1-0.6,5.7-2.6,5.7-2.6l-0.1-0.1c1.9-1,2.9-0.4,3.4,0l6.7,5.5c1,1,2.6,1.1,3.6,0.1c0,0,0,0,0.1-0.1
			l1.6-1.6l1-1l1.6-1.6c0.8-1.1,0.7-2.6-0.2-3.5"/>
		<path fill="#8AAA44" d="M339,312.2l-16-1.7c-1-0.1-3.1-0.7-4.3-3.9c-1.3-4.5-3.1-8.9-5.5-13c-1-2.8-0.1-4.6,0.6-5.4l10.4-12.8
			c1.9-1.9,1.9-5.1,0-7l-3-3l-1.9-2l-3-3c-1.9-1.9-5-2-6.9-0.1c0,0,0,0-0.1,0.1l-12.8,10.4c-0.9,0.7-3,1.9-6.4,0.1
			c-3.7-2-7.7-3.6-11.8-4.8c-3.4-1.2-4-3.4-4.1-4.5l-1.7-16.8c0-2.8-2.2-5.2-5-5.4h-10.8c-2.8,0-5,2.7-5,5.4l-1.6,16.6
			c-0.1,1.1-0.7,3.3-4.1,4.6c-4.1,1.2-8,2.8-11.8,4.8c-3.5,1.7-5.6,0.7-6.4-0.1L215,260.3c-1.9-1.9-5.1-1.9-7,0l-3,3l-2,2l-3,3
			c-1.9,1.9-1.9,5.1,0,7l10.4,12.8c0.7,0.8,1.6,2.5,0.6,5.4c-2.4,4.1-4.2,8.5-5.5,13c-1.3,3.1-3.3,3.8-4.4,3.9l-16,1.7
			c-2.8,0-4.6,2.2-4.6,5v11c0,2.8,1.8,5,4.6,5l16.1,1.7c1.1,0.1,3.1,0.7,4.3,3.9c1.3,4.5,3.1,8.9,5.4,13c0.8,1.8,0.6,3.9-0.6,5.4
			l-10.4,12.8c-1.9,1.9-1.9,5.1,0,7l3,3l2,2l3,3c1.9,1.9,5.1,1.9,7,0l12.8-10.4c0.9-0.7,3-1.9,6.4-0.1c3.7,2,7.7,3.6,11.8,4.8
			c3.4,1.2,4,3.4,4.1,4.5l1.7,16.8c0,2.8,2.2,5.2,5,5.4h10.7c2.8,0,5-2.7,5-5.4l1.7-16.7c0.1-1.1,0.7-3.3,4.1-4.6
			c4.1-1.2,8-2.8,11.8-4.8c3.5-1.7,5.5-0.7,6.4,0.1l12.8,10.5c1.9,1.9,5.1,1.9,7,0l3-3l2-2l3-3c1.9-1.9,1.9-5.1,0-7l-10.4-12.8
			c-0.7-0.8-1.6-2.5-0.6-5.4c2.4-4.1,4.2-8.5,5.5-13c1.3-3.1,3.3-3.8,4.4-3.9l15.9-1.7c2.8,0,4.4-2.2,4.4-5v-11
			C343.5,314.4,341.8,312.2,339,312.2 M262.2,370.3c-26.4,0-47.8-21.5-47.8-47.9s21.5-47.8,47.9-47.8s47.8,21.4,47.8,47.8
			C310,348.8,288.6,370.2,262.2,370.3"/>
		<path fill="#9CCB4A" d="M263,409.1c-47.9,0-86.7-38.9-86.6-86.8c0-47.9,38.9-86.7,86.8-86.6c27.7,0,53.7,13.3,70,35.6l41.9-47.5
			l-4.7-4.8l-3.6-3.6l-5.4-5.4c-3.5-3.5-9.2-3.5-12.7,0l-23.1,18.8c-1.6,1.4-5.4,3.4-11.8,0.1v-0.1l-20.2-8.6h0.1
			c-6.9-2.2-8.1-6.4-8.3-8.4l-3-29.9c0-5-4-9.1-9-9.2H253c-5,0.1-9,4.2-9,9.2l-3,29.8c-0.2,2-1.4,5.9-7.5,8.2
			c-7.4,2.1-14.5,5-21.3,8.7c-6.3,3.1-10.1,1.2-11.7-0.2l-23.1-18.9c-3.5-3.5-9.2-3.5-12.7,0l-5.4,5.4l-3.6,3.6l-5.4,5.4
			c-3.5,3.5-3.5,9.2,0,12.7l0,0l18.9,23.1c1.2,1.4,2.9,4.6,1,9.8c-4.3,7.4-7.6,15.3-10,23.5c-2.3,5.8-6,6.9-8,7.1l-29.7,3
			c-5,0-9,4-9.1,9V332c0.1,5,4.1,9,9.1,9l29.6,3c2,0.2,5.7,1.3,8,7c2.4,8.3,5.7,16.2,10,23.6c1.9,5.2,0.2,8.4-1,9.8l-18.8,23.2
			c-3.5,3.5-3.5,9.2,0,12.7l0,0l5.4,5.4l3.6,3.6l5.4,5.5c3.5,3.5,9.2,3.5,12.7,0l23.1-18.9c1.6-1.4,5.3-3.3,11.7-0.2
			c6.8,3.7,13.9,6.6,21.3,8.7c6.1,2.3,7.3,6.2,7.5,8.2l3,29.8c0,5,4,9.1,9,9.2h20.4c5-0.1,9-4.2,9-9.2l3-29.9
			c0.2-2.1,1.4-6.2,8.3-8.4h-0.1l20.2-8.6v0.2c6.4-3.3,10.2-1.2,11.8,0.1l23.1,18.9c3.5,3.5,9.2,3.5,12.7,0l5.4-5.4l3.6-3.6l4.7-4.7
			l-42-47.5C316.7,396,290.7,409.2,263,409.1"/>
	</g>
</g>
</svg>
