<?xml version="1.0" encoding="utf-8" standalone="yes"?><!-- Generator: Adobe Illustrator 25.1.0, SVG Export Plug-In . SVG Version: 6.00 Build 0)  -->
<svg xmlns="http://www.w3.org/2000/svg"
    xmlns:xlink="http://www.w3.org/1999/xlink" version="1.2" baseProfile="tiny-ps" viewBox="0 0 512 512" xml:space="preserve">
    <title>Tech Valley Center of Gravity</title>
    <g>
        <path fill="#728D3A" d="M308.1,296.2l-9-11c-0.6-0.8-1.6-2.6-0.1-5.6l0,0l4.1-9.6c0,0,8.6-20,4.5-20l-37.5,0l-0.3,4.1v3.6   c0,2.4,2.3,4.3,4.6,4.3l16.3,1c0.8,0.1,4.2,0.8,3.1,4.9c-4.7,17.6-20.2,28.8-39.3,28.8c-22.8,0-41.3-18.5-41.3-41.3   c0-22.8,18.5-41.3,41.3-41.3c5.8,0,11.3,1.2,16.3,3.3l3.6-8.3l-5.3-2.2l0,0c-3.3-1.1-3.8-3-3.9-4l-1.4-13.9c0-2.4-1.9-4.1-4.3-4.1   h-3.6h-2.4h-3.6c-2.4,0-4.3,1.7-4.3,4.1l-1.4,14c-0.1,0.9-0.7,2.7-3.5,3.8c-3.5,1-6.9,2.4-10.1,4.1c-3,1.5-4.8,0.5-5.5-0.1l-11-9   c-1.7-1.7-4.4-1.7-6,0l-2.6,2.6l-1.7,1.7l-2.6,2.6c-1.7,1.7-1.7,4.4,0,6l9,11c0.6,0.7,1.4,2.2,0.5,4.6c-2,3.5-3.6,7.2-4.7,11.1   c-1.1,2.7-2.9,3.3-3.8,3.3l-14.4,1.4c-2.4,0-4.6,1.9-4.6,4.3v3.6v2.4v3.6c0,2.4,2.2,4.3,4.6,4.3l14.3,1.4c0.9,0.1,2.5,0.5,3.6,2.8   c1.1,4,2.7,7.8,4.7,11.4c1.2,2.7,0.3,4.3-0.3,5l-9,11c-1.7,1.7-1.7,4.4,0,6l4.3,4.3l2.6,2.6c1.7,1.7,4.4,1.7,6,0l11-9   c0.7-0.6,2.4-1.4,5-0.4c3.2,1.8,6.8,3.3,10.5,4.4v0c3.7,1,3.7,3,3.8,4l1.4,14.4c0,2.4,1.9,4.6,4.2,4.6h3.6h2.4h3.6   c2.4,0,4.3-2.2,4.3-4.6l1.9-14c0.1-1,0.7-2.9,4.4-4v0c1.8-1,9.3-4.2,9.3-4.2l-0.2-0.1c3-1.6,4.7-0.6,5.5,0l10.9,8.9   c1.7,1.7,4.3,1.7,6,0l2.6-2.6l1.7-1.7l2.6-2.6C309.8,300.6,309.8,297.9,308.1,296.2"></path>
        <path fill="#8AAA44" d="M379,238l-25.9-2.7c-1.7-0.2-5-1.2-7-6.3c-2.1-7.4-5.1-14.5-8.9-21c-1.7-4.6-0.2-7.5,0.9-8.8l16.9-20.7   c3.1-3.2,3.2-8.3,0-11.4l-4.9-4.9L347,159l-4.9-4.9c-3.2-3.2-8.3-3.2-11.4,0L310,171c-1.4,1.2-4.8,3-10.4,0.2   c-6-3.2-12.4-5.9-19.1-7.8c-5.5-2-6.5-5.5-6.7-7.3l-2.7-27.2c0-4.5-3.6-8.7-8.1-8.7h-6.9h-1.5H254h-1.5h-6.9   c-4.5,0-8.1,4.3-8.1,8.7l-2.7,27c-0.2,1.8-1.2,5.4-6.7,7.4c-6.7,1.9-13.1,4.6-19.1,7.8c-5.7,2.8-9,1.1-10.4-0.1l-20.7-16.9   c-3.2-3.2-8.3-3.1-11.4,0l-4.9,4.9l-3.2,3.2l-4.9,4.9c-3.1,3.2-3.1,8.3,0,11.4l16.9,20.7c1.1,1.3,2.6,4.1,0.9,8.8   c-3.8,6.6-6.8,13.6-8.9,21c-2.1,5.1-5.4,6.2-7.1,6.3l-25.9,2.7c-4.5,0-7.4,3.6-7.4,8.1v6.9v2v2v6.9c0,4.5,2.9,8.1,7.4,8.1l26.1,2.7   c1.7,0.2,5,1.2,7,6.3c2.1,7.4,5.1,14.5,8.8,21c1.7,4.6,0.1,7.5-0.9,8.8l-16.9,20.7c-3.1,3.2-3.2,8.3,0,11.4l4.9,4.9l3.2,3.2   l4.9,4.9c3.2,3.1,8.3,3.2,11.4,0l20.7-16.9c1.4-1.2,4.8-3,10.4-0.2c6,3.2,12.4,5.9,19.1,7.8c5.5,2,6.5,5.5,6.7,7.3l2.7,27.2   c0,4.5,3.6,8.7,8.1,8.7h6.9h1.5h0.5h1.5h6.9c4.5,0,8.1-4.3,8.1-8.7l2.7-27c0.2-1.8,1.2-5.4,6.7-7.4c6.7-1.9,13.1-4.6,19.1-7.8   c5.7-2.8,9-1.1,10.4,0.1l20.7,16.9c3.2,3.1,8.3,3.1,11.4,0l4.9-4.9l3.2-3.2l4.9-4.9c3.1-3.2,3.1-8.3,0-11.4l-16.9-20.7   c-1.1-1.3-2.6-4.1-0.9-8.8c3.8-6.6,6.8-13.6,8.9-21c2.1-5.1,5.4-6.2,7.1-6.3L379,272c4.5,0,7.2-3.6,7.2-8.1V257v-2v-2v-6.9   C386.2,241.6,383.5,238,379,238 M254.3,332.6c-42.8-0.2-77.5-34.8-77.7-77.6c0.2-42.8,34.9-77.4,77.7-77.6   c42.8,0.2,77.5,34.8,77.7,77.6C331.8,297.8,297.1,332.4,254.3,332.6"></path>
        <path fill="#9CCB4A" d="M255.2,395.6c-77.7,0-140.7-63-140.8-140.7c0.1-77.7,63.1-140.6,140.8-140.6c46.7,0,88.1,22.8,113.8,57.8   L437,95.1l-7.6-7.7l-5.8-5.8l-8.8-8.8c-5.7-5.7-14.9-5.7-20.6,0l-37.4,30.5c-2.6,2.2-8.7,5.5-19.1,0.2l0,0.1l-32.8-13.9l0.1,0   c-11.1-3.6-13.1-10.3-13.4-13.6l-4.9-48.3c0-8-6.5-14.8-14.6-14.8h-12.4h-8.2H239c-8,0-14.6,6.7-14.6,14.8l-4.9,48.2   c-0.3,3.2-2.2,9.5-12.1,13.2c-12.1,3.4-23.7,8.1-34.5,14c-10.2,5.1-16.3,1.9-18.9-0.3l-37.4-30.5c-5.7-5.7-14.9-5.7-20.6,0   l-8.8,8.8l-5.8,5.8l-8.8,8.8c-5.7,5.7-5.7,14.9,0,20.6l30.5,37.4c1.9,2.3,4.7,7.4,1.6,15.8c-6.8,11.9-12.2,24.6-16.1,38   c-3.7,9.3-9.7,11.1-12.9,11.4l-48.2,4.9c-8,0-14.7,6.5-14.7,14.6v12.4v4.3v4.3v12.4c0,8,6.7,14.6,14.7,14.6l48,4.9   c3.2,0.3,9.3,2.1,13,11.4c3.8,13.4,9.3,26.1,16.1,38c3.1,8.4,0.3,13.5-1.6,15.8l-30.5,37.4c-5.7,5.7-5.7,14.9,0,20.6l8.8,8.8   l5.8,5.8l8.8,8.8c5.7,5.7,14.9,5.7,20.6,0l37.4-30.5c2.6-2.2,8.6-5.4,18.9-0.3c10.8,5.8,22.4,10.6,34.5,14   c9.9,3.7,11.8,10,12.1,13.2l4.9,48.1c0,8,6.5,14.8,14.6,14.8h12.4h8.2h12.4c8,0,14.6-6.7,14.6-14.8l4.9-48.3   c0.3-3.4,2.3-10,13.4-13.6l-0.1,0l32.8-13.9l0,0.1c10.4-5.3,16.5-2,19.1,0.2l37.4,30.5c5.7,5.7,14.9,5.7,20.6,0l8.8-8.8l5.8-5.8   l7.6-7.7l-68.1-77.1C343.3,372.9,301.9,395.6,255.2,395.6"></path>
    </g>
</svg>